<?xml version="1.0" standalone="no"?>
<!DOCTYPE svg PUBLIC "-//W3C//DTD SVG 20010904//EN"
 "http://www.w3.org/TR/2001/REC-SVG-20010904/DTD/svg10.dtd">
<svg version="1.0" xmlns="http://www.w3.org/2000/svg"
 width="276.000000pt" height="276.000000pt" viewBox="0 0 276.000000 276.000000"
 preserveAspectRatio="xMidYMid meet">
<metadata>
Created by potrace 1.11, written by Peter Selinger 2001-2013
</metadata>
<g transform="translate(0.000000,276.000000) scale(0.100000,-0.100000)"
fill="#000000" stroke="none">
<path d="M1703 1930 c-189 -49 -367 -152 -491 -284 -46 -49 -55 -54 -107 -60
-73 -8 -132 -37 -182 -89 -74 -75 -129 -219 -105 -272 15 -33 45 -39 141 -28
l80 9 12 -28 c13 -32 106 -123 135 -132 19 -6 20 -11 11 -86 -11 -97 -5 -127
28 -142 53 -24 197 31 272 104 48 47 79 111 89 186 6 48 12 58 70 114 156 150
278 396 291 590 6 83 5 87 -20 112 -23 23 -34 26 -89 25 -35 0 -95 -9 -135
-19z m-65 -240 c51 -32 74 -76 69 -138 -4 -56 -27 -91 -79 -118 -91 -47 -208
27 -208 131 0 110 125 181 218 125z"/>
<path d="M1517 1612 c-22 -25 -21 -75 1 -95 25 -22 75 -21 95 1 22 25 21 75
-1 95 -25 22 -75 21 -95 -1z"/>
<path d="M952 1159 c-56 -28 -80 -77 -95 -190 -10 -80 -9 -91 6 -106 15 -15
26 -16 106 -6 116 15 162 39 191 98 18 38 20 51 11 71 -13 29 -36 30 -76 4
-36 -24 -73 -26 -82 -4 -3 9 4 36 16 60 26 55 26 70 2 84 -26 14 -30 13 -79
-11z"/>
<path d="M1343 93 c20 -2 54 -2 75 0 20 2 3 4 -38 4 -41 0 -58 -2 -37 -4z"/>
</g>
</svg>
